<svg width="667" height="747" viewBox="0 0 667 747" fill="none" xmlns="http://www.w3.org/2000/svg">
<path d="M315.333 2.85002C327.033 -0.950008 339.634 -0.950008 351.333 2.85002L626.333 92.0167C638.052 95.8183 648.267 103.233 655.512 113.197C662.758 123.161 666.662 135.163 666.667 147.483V314.95C666.667 521.283 541 671.783 353.3 742.617C340.428 747.45 326.239 747.45 313.367 742.617C125.7 671.75 0 521.283 0 314.95V147.483C0 122.15 16.3333 99.8167 40.3333 92.0167L315.333 2.85002ZM335.9 50.3834C334.23 49.8499 332.436 49.8499 330.767 50.3834L55.7667 139.617C54.0955 140.158 52.6381 141.213 51.6024 142.632C50.5668 144.05 50.006 145.76 50 147.517V314.95C50 496.983 159.333 631.05 331 695.817C332.504 696.382 334.162 696.382 335.667 695.817C507.333 631.05 616.667 496.983 616.667 314.95V147.483C616.661 145.727 616.1 144.017 615.064 142.598C614.029 141.18 612.571 140.124 610.9 139.583L335.9 50.3834ZM366.667 372.683V464.95C366.667 473.791 363.155 482.269 356.904 488.52C350.652 494.771 342.174 498.283 333.333 498.283C324.493 498.283 316.014 494.771 309.763 488.52C303.512 482.269 300 473.791 300 464.95V372.683C287.291 365.346 277.357 354.019 271.741 340.461C266.125 326.902 265.14 311.869 268.938 297.694C272.737 283.518 281.106 270.992 292.749 262.058C304.392 253.124 318.658 248.282 333.333 248.282C348.009 248.282 362.275 253.124 373.917 262.058C385.56 270.992 393.93 283.518 397.728 297.694C401.527 311.869 400.541 326.902 394.925 340.461C389.309 354.019 379.376 365.346 366.667 372.683Z" fill="white"/>
</svg>
